<?xml version="1.0" encoding="utf-8"?>
<!-- Generator: Adobe Illustrator 25.0.0, SVG Export Plug-In . SVG Version: 6.00 Build 0)  -->
<svg version="1.1" id="Слой_1" xmlns="http://www.w3.org/2000/svg" xmlns:xlink="http://www.w3.org/1999/xlink" x="0px" y="0px"
	 viewBox="0 0 600 600" style="enable-background:new 0 0 600 600;" xml:space="preserve">
<style type="text/css">
	.st0{fill:none;stroke:url(#SVGID_1_);stroke-width:7;stroke-linecap:round;stroke-linejoin:round;stroke-miterlimit:10;}
	.st1{fill:none;stroke:url(#SVGID_2_);stroke-width:7;stroke-linecap:round;stroke-linejoin:round;stroke-miterlimit:10;}
	.st2{fill:none;stroke:url(#SVGID_3_);stroke-width:7;stroke-linecap:round;stroke-linejoin:round;stroke-miterlimit:10;}
	.st3{fill:none;stroke:url(#SVGID_4_);stroke-width:7;stroke-linecap:round;stroke-linejoin:round;stroke-miterlimit:10;}
	.st4{fill:#FFFFFF;stroke:url(#SVGID_5_);stroke-width:7;stroke-linecap:round;stroke-linejoin:round;stroke-miterlimit:10;}
	.st5{fill:none;stroke:url(#SVGID_6_);stroke-width:7;stroke-linecap:round;stroke-linejoin:round;stroke-miterlimit:10;}
	.st6{fill:none;stroke:url(#SVGID_7_);stroke-width:7;stroke-linecap:round;stroke-linejoin:round;stroke-miterlimit:10;}
	.st7{fill:none;stroke:url(#SVGID_8_);stroke-width:7;stroke-linecap:round;stroke-linejoin:round;stroke-miterlimit:10;}
	.st8{fill:none;stroke:url(#SVGID_9_);stroke-width:7;stroke-linecap:round;stroke-linejoin:round;stroke-miterlimit:10;}
	.st9{fill:url(#SVGID_10_);}
	.st10{fill:url(#SVGID_11_);}
	.st11{fill:url(#SVGID_12_);}
	.st12{fill:url(#SVGID_13_);}
	.st13{fill:url(#SVGID_14_);}
	.st14{fill:url(#SVGID_15_);}
	.st15{fill:url(#SVGID_16_);}
	.st16{fill:url(#SVGID_17_);}
	.st17{fill:url(#SVGID_18_);}
	.st18{fill:url(#SVGID_19_);}
</style>
<linearGradient id="SVGID_1_" gradientUnits="userSpaceOnUse" x1="123.6538" y1="284.0119" x2="467.4106" y2="284.0119">
	<stop  offset="0" style="stop-color:#17F3FC"/>
	<stop  offset="1" style="stop-color:#E09CE0"/>
</linearGradient>
<path class="st0" d="M463.91,240.59c0,73.57-73.82,134.52-87.63,235.59c-96.77,22.88-92.16,32.11-152.26-7.88
	c-27.67-109.81-78.42-122.67-96.87-227.71c0-92.99,75.38-168.39,168.39-168.39c90.65,0,164.56,71.65,168.2,161.4
	c0.02,0.02,0.02,0.04,0.02,0.08C463.87,235.97,463.91,238.27,463.91,240.59z"/>
<g>
	<linearGradient id="SVGID_2_" gradientUnits="userSpaceOnUse" x1="215.9328" y1="368.8486" x2="274.4111" y2="368.8486">
		<stop  offset="0" style="stop-color:#E09CE0"/>
		<stop  offset="1" style="stop-color:#17F3FC"/>
	</linearGradient>
	<path class="st1" d="M219.43,272.58c0,0,31.91,73.27,41.55,100.45c9.64,27.18,9.92,92.08,9.92,92.08"/>
	<linearGradient id="SVGID_3_" gradientUnits="userSpaceOnUse" x1="328.2957" y1="368.8494" x2="386.7668" y2="368.8494">
		<stop  offset="0" style="stop-color:#E09CE0"/>
		<stop  offset="1" style="stop-color:#17F3FC"/>
	</linearGradient>
	<path class="st2" d="M383.27,272.59c0,0-31.9,73.27-41.55,100.45c-9.65,27.18-9.92,92.08-9.92,92.08"/>
</g>
<linearGradient id="SVGID_4_" gradientUnits="userSpaceOnUse" x1="238.7851" y1="559.5545" x2="361.5548" y2="559.5545">
	<stop  offset="0" style="stop-color:#17F3FC"/>
	<stop  offset="1" style="stop-color:#E09CE0"/>
</linearGradient>
<path class="st3" d="M242.29,519.11v51.96c0,15.98,10.37,28.93,23.16,28.93h69.47c12.77,0,23.14-12.95,23.14-28.93l0-51.96
	L242.29,519.11z"/>
<linearGradient id="SVGID_5_" gradientUnits="userSpaceOnUse" x1="209.9459" y1="511.9682" x2="390.3942" y2="511.9682">
	<stop  offset="0" style="stop-color:#17F3FC"/>
	<stop  offset="1" style="stop-color:#E09CE0"/>
</linearGradient>
<path class="st4" d="M213.45,455.37v84.25c0,15.98,12.95,28.93,28.91,28.93h115.62c15.96,0,28.92-12.95,28.92-28.93v-84.25H213.45z"
	/>
<g>
	<linearGradient id="SVGID_6_" gradientUnits="userSpaceOnUse" x1="230.6652" y1="299.359" x2="271.251" y2="299.359">
		<stop  offset="0" style="stop-color:#E09CE0"/>
		<stop  offset="1" style="stop-color:#17F3FC"/>
	</linearGradient>
	<path class="st5" d="M267.75,299.35c0,12.18-7.53,22.05-16.8,22.05c-9.28,0-16.79-9.87-16.79-22.05c0-12.16,7.51-22.03,16.79-22.03
		C260.23,277.32,267.75,287.2,267.75,299.35z"/>
	<linearGradient id="SVGID_7_" gradientUnits="userSpaceOnUse" x1="264.251" y1="299.359" x2="304.846" y2="299.359">
		<stop  offset="0" style="stop-color:#E09CE0"/>
		<stop  offset="1" style="stop-color:#17F3FC"/>
	</linearGradient>
	<path class="st6" d="M301.35,299.35c0,12.18-7.51,22.05-16.8,22.05c-9.27,0-16.79-9.87-16.79-22.05c0-12.15,7.53-22.03,16.8-22.03
		C293.84,277.32,301.35,287.19,301.35,299.35z"/>
	<linearGradient id="SVGID_8_" gradientUnits="userSpaceOnUse" x1="297.846" y1="299.359" x2="338.4557" y2="299.359">
		<stop  offset="0" style="stop-color:#E09CE0"/>
		<stop  offset="1" style="stop-color:#17F3FC"/>
	</linearGradient>
	<path class="st7" d="M334.96,299.35c0,12.18-7.53,22.05-16.8,22.05c-9.28,0-16.8-9.87-16.81-22.05c0-12.16,7.52-22.03,16.81-22.03
		C327.43,277.32,334.96,287.2,334.96,299.35z"/>
	<linearGradient id="SVGID_9_" gradientUnits="userSpaceOnUse" x1="331.4557" y1="299.3608" x2="372.0416" y2="299.3608">
		<stop  offset="0" style="stop-color:#E09CE0"/>
		<stop  offset="1" style="stop-color:#17F3FC"/>
	</linearGradient>
	<path class="st8" d="M368.54,299.35c0,12.18-7.51,22.05-16.79,22.05c-9.28,0-16.8-9.87-16.8-22.05c0-12.15,7.52-22.03,16.8-22.03
		C361.03,277.32,368.54,287.19,368.54,299.35z"/>
</g>
<linearGradient id="SVGID_10_" gradientUnits="userSpaceOnUse" x1="206.7522" y1="477.1557" x2="392.7687" y2="477.1557">
	<stop  offset="0" style="stop-color:#E09CE0"/>
	<stop  offset="0.1214" style="stop-color:#BEABE5"/>
	<stop  offset="0.3493" style="stop-color:#83C4ED"/>
	<stop  offset="0.5593" style="stop-color:#54D8F3"/>
	<stop  offset="0.7444" style="stop-color:#33E7F8"/>
	<stop  offset="0.8976" style="stop-color:#1EF0FB"/>
	<stop  offset="1" style="stop-color:#17F3FC"/>
</linearGradient>
<path class="st9" d="M392.77,480.77c0,2.3-1.77,4.16-3.95,4.16H210.7c-2.18,0-3.95-1.86-3.95-4.16v-7.23c0-2.3,1.77-4.16,3.95-4.16
	h178.11c2.18,0,3.95,1.86,3.96,4.16L392.77,480.77z"/>
<linearGradient id="SVGID_11_" gradientUnits="userSpaceOnUse" x1="206.7522" y1="502.0221" x2="392.7687" y2="502.0221">
	<stop  offset="0" style="stop-color:#E09CE0"/>
	<stop  offset="0.1214" style="stop-color:#BEABE5"/>
	<stop  offset="0.3493" style="stop-color:#83C4ED"/>
	<stop  offset="0.5593" style="stop-color:#54D8F3"/>
	<stop  offset="0.7444" style="stop-color:#33E7F8"/>
	<stop  offset="0.8976" style="stop-color:#1EF0FB"/>
	<stop  offset="1" style="stop-color:#17F3FC"/>
</linearGradient>
<path class="st10" d="M392.77,505.63c0,2.3-1.77,4.16-3.96,4.16H210.7c-2.18,0-3.95-1.87-3.95-4.16v-7.23c0-2.3,1.77-4.16,3.95-4.16
	l178.11,0c2.18,0,3.95,1.86,3.95,4.16L392.77,505.63z"/>
<linearGradient id="SVGID_12_" gradientUnits="userSpaceOnUse" x1="207.1553" y1="526.8861" x2="393.181" y2="526.8861">
	<stop  offset="0" style="stop-color:#E09CE0"/>
	<stop  offset="0.1214" style="stop-color:#BEABE5"/>
	<stop  offset="0.3493" style="stop-color:#83C4ED"/>
	<stop  offset="0.5593" style="stop-color:#54D8F3"/>
	<stop  offset="0.7444" style="stop-color:#33E7F8"/>
	<stop  offset="0.8976" style="stop-color:#1EF0FB"/>
	<stop  offset="1" style="stop-color:#17F3FC"/>
</linearGradient>
<path class="st11" d="M393.18,530.5c0,2.29-1.77,4.16-3.95,4.16H211.12c-2.19,0-3.96-1.86-3.96-4.16v-7.22
	c0-2.3,1.77-4.17,3.96-4.17l178.11,0c2.19,0,3.95,1.87,3.96,4.17L393.18,530.5z"/>
<g>
	<linearGradient id="SVGID_13_" gradientUnits="userSpaceOnUse" x1="294.306" y1="64.7392" x2="297.3803" y2="-24.4173">
		<stop  offset="0" style="stop-color:#E09CE0"/>
		<stop  offset="0.2695" style="stop-color:#96BCEA"/>
		<stop  offset="0.481" style="stop-color:#63D2F1"/>
		<stop  offset="0.5843" style="stop-color:#4FDBF4"/>
		<stop  offset="0.7439" style="stop-color:#33E7F8"/>
		<stop  offset="0.8974" style="stop-color:#1EF0FB"/>
		<stop  offset="1" style="stop-color:#17F3FC"/>
	</linearGradient>
	<path class="st12" d="M304.22,49.36c0,4.8-3.89,8.69-8.69,8.69l0,0c-4.8,0-8.69-3.89-8.69-8.69l0-40.19c0-4.8,3.89-8.69,8.69-8.69
		l0,0c4.81,0,8.69,3.9,8.69,8.69L304.22,49.36z"/>
	<linearGradient id="SVGID_14_" gradientUnits="userSpaceOnUse" x1="89.5964" y1="57.6802" x2="92.6708" y2="-31.4762">
		<stop  offset="0" style="stop-color:#E09CE0"/>
		<stop  offset="0.1214" style="stop-color:#BEABE5"/>
		<stop  offset="0.3493" style="stop-color:#83C4ED"/>
		<stop  offset="0.5593" style="stop-color:#54D8F3"/>
		<stop  offset="0.7444" style="stop-color:#33E7F8"/>
		<stop  offset="0.8976" style="stop-color:#1EF0FB"/>
		<stop  offset="1" style="stop-color:#17F3FC"/>
	</linearGradient>
	<path class="st13" d="M102.94,244.62c4.8,0,8.69,3.89,8.69,8.69l0,0c0,4.8-3.89,8.69-8.69,8.69l-40.19,0
		c-4.81,0-8.69-3.89-8.69-8.69l0,0c0-4.8,3.89-8.69,8.69-8.69L102.94,244.62z"/>
	<linearGradient id="SVGID_15_" gradientUnits="userSpaceOnUse" x1="101.9468" y1="58.1061" x2="105.0212" y2="-31.0504">
		<stop  offset="0" style="stop-color:#E09CE0"/>
		<stop  offset="0.1214" style="stop-color:#BEABE5"/>
		<stop  offset="0.3493" style="stop-color:#83C4ED"/>
		<stop  offset="0.5593" style="stop-color:#54D8F3"/>
		<stop  offset="0.7444" style="stop-color:#33E7F8"/>
		<stop  offset="0.8976" style="stop-color:#1EF0FB"/>
		<stop  offset="1" style="stop-color:#17F3FC"/>
	</linearGradient>
	<path class="st14" d="M120.47,150.57c4.02,2.62,5.16,8,2.54,12.03l0,0c-2.62,4.02-8,5.16-12.03,2.54L77.3,143.19
		c-4.02-2.62-5.16-8.01-2.54-12.03l0,0c2.62-4.02,8.01-5.16,12.03-2.54L120.47,150.57z"/>
	<linearGradient id="SVGID_16_" gradientUnits="userSpaceOnUse" x1="493.0966" y1="71.594" x2="496.171" y2="-17.5624">
		<stop  offset="0" style="stop-color:#E09CE0"/>
		<stop  offset="0.1214" style="stop-color:#BEABE5"/>
		<stop  offset="0.3493" style="stop-color:#83C4ED"/>
		<stop  offset="0.5593" style="stop-color:#54D8F3"/>
		<stop  offset="0.7444" style="stop-color:#33E7F8"/>
		<stop  offset="0.8976" style="stop-color:#1EF0FB"/>
		<stop  offset="1" style="stop-color:#17F3FC"/>
	</linearGradient>
	<path class="st15" d="M468.92,150.57c-4.02,2.62-5.16,8-2.54,12.03l0,0c2.62,4.02,8,5.16,12.03,2.54l33.67-21.94
		c4.02-2.62,5.16-8.01,2.54-12.03l0,0c-2.63-4.02-8.01-5.16-12.03-2.54L468.92,150.57z"/>
	<linearGradient id="SVGID_17_" gradientUnits="userSpaceOnUse" x1="184.1658" y1="60.9412" x2="187.2402" y2="-28.2152">
		<stop  offset="0" style="stop-color:#E09CE0"/>
		<stop  offset="0.1214" style="stop-color:#BEABE5"/>
		<stop  offset="0.3493" style="stop-color:#83C4ED"/>
		<stop  offset="0.5593" style="stop-color:#54D8F3"/>
		<stop  offset="0.7444" style="stop-color:#33E7F8"/>
		<stop  offset="0.8976" style="stop-color:#1EF0FB"/>
		<stop  offset="1" style="stop-color:#17F3FC"/>
	</linearGradient>
	<path class="st16" d="M204.69,64.2c3.39,3.39,3.39,8.9,0,12.29l0,0c-3.4,3.39-8.9,3.39-12.29,0l-28.42-28.41
		c-3.39-3.39-3.39-8.9,0-12.29l0,0c3.39-3.4,8.9-3.39,12.3,0L204.69,64.2z"/>
	<linearGradient id="SVGID_18_" gradientUnits="userSpaceOnUse" x1="405.8158" y1="68.5843" x2="408.8902" y2="-20.5721">
		<stop  offset="0" style="stop-color:#E09CE0"/>
		<stop  offset="0.1214" style="stop-color:#BEABE5"/>
		<stop  offset="0.3493" style="stop-color:#83C4ED"/>
		<stop  offset="0.5593" style="stop-color:#54D8F3"/>
		<stop  offset="0.7444" style="stop-color:#33E7F8"/>
		<stop  offset="0.8976" style="stop-color:#1EF0FB"/>
		<stop  offset="1" style="stop-color:#17F3FC"/>
	</linearGradient>
	<path class="st17" d="M398.18,76.49c-3.39,3.39-8.9,3.4-12.29,0l0,0c-3.39-3.39-3.39-8.9,0-12.29l28.42-28.41
		c3.39-3.4,8.9-3.4,12.3,0l0,0c3.39,3.39,3.39,8.9,0,12.29L398.18,76.49z"/>
	<linearGradient id="SVGID_19_" gradientUnits="userSpaceOnUse" x1="514.4516" y1="72.3304" x2="517.526" y2="-16.8261">
		<stop  offset="0" style="stop-color:#E09CE0"/>
		<stop  offset="0.1214" style="stop-color:#BEABE5"/>
		<stop  offset="0.3493" style="stop-color:#83C4ED"/>
		<stop  offset="0.5593" style="stop-color:#54D8F3"/>
		<stop  offset="0.7444" style="stop-color:#33E7F8"/>
		<stop  offset="0.8976" style="stop-color:#1EF0FB"/>
		<stop  offset="1" style="stop-color:#17F3FC"/>
	</linearGradient>
	<path class="st18" d="M528.3,244.62c4.8,0,8.7,3.89,8.7,8.69l0,0c0,4.8-3.9,8.69-8.7,8.69l-40.19,0c-4.8,0-8.69-3.89-8.69-8.69l0,0
		c0-4.8,3.89-8.69,8.69-8.69L528.3,244.62z"/>
</g>
</svg>
